<svg width="200" height="200" viewBox="0 0 200 200" fill="none" xmlns="http://www.w3.org/2000/svg">
<path d="M179.156 20.896C160.285 2.09901 133.153 0 100 0C66.8045 0 39.6337 2.12376 20.7723 20.9703C1.91089 39.8168 0 66.9381 0 100.097C0 133.255 1.91584 160.396 20.7921 179.243C39.6683 198.089 66.8069 200 100 200C133.193 200 160.359 198.092 179.208 179.243C198.057 160.394 200 133.257 200 100.097C200 66.8936 198.059 39.7376 179.156 20.896Z" fill="black"/>
<path d="M162 116.99H38C41.6643 87.0631 52.5106 50.4415 75.3759 87.8343C81.9716 51.7373 109.674 47.1094 121.546 87.8343C139.135 49.4233 154.232 82.898 162 116.99Z" fill="white"/>
<path d="M38 123.175H162V134H38V123.175Z" fill="white"/>
</svg>
