<svg width="212" height="48" viewBox="0 0 212 48" fill="none" xmlns="http://www.w3.org/2000/svg">
<path d="M83.9581 14.616C84.2173 14.9904 84.3037 15.5808 84.2173 16.3872C84.1597 17.1648 84.0157 18.0144 83.7853 18.936C83.5549 19.8288 83.2813 20.7216 82.9645 21.6144C82.6477 22.4784 82.3885 23.1984 82.1869 23.7744C81.6973 25.0992 81.2653 26.3376 80.8909 27.4896C80.5165 28.6416 80.0701 29.9088 79.5517 31.2912C79.3789 31.6944 79.2061 32.0976 79.0333 32.5008C78.8893 32.904 78.7021 33.264 78.4717 33.5808C78.2701 33.8976 78.0109 34.1568 77.6941 34.3584C77.4061 34.56 77.0461 34.6608 76.6141 34.6608C76.1245 34.6608 75.6925 34.488 75.3181 34.1424C74.9725 33.7968 74.6701 33.3648 74.4109 32.8464C74.1805 32.328 73.9789 31.7808 73.8061 31.2048C73.6333 30.6288 73.4893 30.1248 73.3741 29.6928C72.9997 28.4256 72.6685 27.2736 72.3805 26.2368C72.0925 25.1712 71.8333 24.2208 71.6029 23.3856C71.3437 24.2208 71.0845 25.128 70.8253 26.1072C70.5661 27.0864 70.2349 28.1952 69.8317 29.4336C69.7165 29.8656 69.5725 30.3984 69.3997 31.032C69.2269 31.6368 69.0109 32.2128 68.7517 32.76C68.5213 33.3072 68.2189 33.768 67.8445 34.1424C67.4989 34.5456 67.0813 34.7184 66.5917 34.6608C65.9005 34.632 65.2957 34.3584 64.7773 33.84C64.2877 33.2928 63.8557 32.6448 63.4813 31.896C63.1357 31.1472 62.8333 30.3696 62.5741 29.5632C62.3149 28.7568 62.0989 28.0512 61.9261 27.4464C61.6957 26.6688 61.4221 25.8048 61.1053 24.8544C60.7885 23.904 60.4717 22.9392 60.1549 21.96C59.8669 20.952 59.5933 19.9584 59.3341 18.9792C59.0749 17.9712 58.9021 17.0496 58.8157 16.2144C58.7581 15.6672 58.8589 15.1632 59.1181 14.7024C59.4061 14.2416 59.7661 13.9248 60.1981 13.752C60.6589 13.5504 61.1485 13.5072 61.6669 13.6224C62.2141 13.7376 62.7037 14.0832 63.1357 14.6592C63.3661 14.9472 63.5677 15.3072 63.7405 15.7392C63.9421 16.1712 64.1149 16.6464 64.2589 17.1648C64.4029 17.6544 64.5469 18.1584 64.6909 18.6768C64.8349 19.1952 64.9789 19.6992 65.1229 20.1888C65.4397 21.2832 65.6989 22.1472 65.9005 22.7808C66.1309 23.3856 66.3613 24.0192 66.5917 24.6816C66.7933 24.0192 66.9949 23.3856 67.1965 22.7808C67.4269 22.1472 67.7005 21.2832 68.0173 20.1888C68.1325 19.8432 68.2621 19.4544 68.4061 19.0224C68.5789 18.5616 68.7517 18.1296 68.9245 17.7264C69.1261 17.3232 69.3421 16.9488 69.5725 16.6032C69.8317 16.2288 70.1053 15.9552 70.3933 15.7824C71.0269 15.3504 71.6029 15.2496 72.1213 15.48C72.6397 15.6816 73.0861 16.0416 73.4605 16.56C73.8349 17.0784 74.1517 17.6832 74.4109 18.3744C74.6989 19.0368 74.9293 19.6416 75.1021 20.1888C75.2749 20.7648 75.4333 21.2688 75.5773 21.7008C75.7213 22.104 75.8509 22.4784 75.9661 22.824C76.0813 23.1696 76.1821 23.5008 76.2685 23.8176C76.3837 24.1344 76.4989 24.4656 76.6141 24.8112C76.7293 24.4656 76.8301 24.1344 76.9165 23.8176C77.0317 23.5008 77.1469 23.1696 77.2621 22.824C77.3773 22.4784 77.5069 22.104 77.6509 21.7008C77.7949 21.2688 77.9533 20.7648 78.1261 20.1888C78.2413 19.8144 78.3565 19.3824 78.4717 18.8928C78.6157 18.4032 78.7597 17.9136 78.9037 17.424C79.0477 16.9056 79.1917 16.416 79.3357 15.9552C79.5085 15.4944 79.6957 15.1056 79.8973 14.7888C80.0989 14.472 80.3725 14.2128 80.7181 14.0112C81.0637 13.7808 81.4237 13.6512 81.7981 13.6224C82.1725 13.5648 82.5469 13.608 82.9213 13.752C83.3245 13.896 83.6701 14.184 83.9581 14.616Z" fill="#1F2937"/>
<path d="M98.0801 26.4528C97.5329 26.1072 96.9137 25.8336 96.2225 25.632C95.5601 25.4304 94.8689 25.2432 94.1489 25.0704C93.4577 24.8976 92.7809 24.7104 92.1185 24.5088C91.4561 24.2784 90.8513 23.9616 90.3041 23.5584C89.1233 22.6656 88.4321 21.5712 88.2305 20.2752C88.0577 18.9504 88.3457 17.6256 89.0945 16.3008C89.4977 15.6096 90.0305 15.048 90.6929 14.616C91.3553 14.1552 92.0753 13.8096 92.8529 13.5792C93.6593 13.32 94.4801 13.176 95.3153 13.1472C96.1505 13.1184 96.9425 13.1616 97.6913 13.2768C98.1809 13.3632 98.6993 13.4928 99.2465 13.6656C99.7937 13.8096 100.298 14.0112 100.759 14.2704C101.248 14.5296 101.68 14.8608 102.055 15.264C102.458 15.6384 102.746 16.1136 102.919 16.6896C103.034 17.064 103.048 17.424 102.962 17.7696C102.904 18.1152 102.76 18.4032 102.53 18.6336C102.328 18.864 102.055 19.0368 101.709 19.152C101.392 19.2672 101.047 19.296 100.672 19.2384C100.24 19.152 99.8369 19.0224 99.4625 18.8496C99.0881 18.6768 98.7137 18.4896 98.3393 18.288C97.9649 18.0864 97.5761 17.9136 97.1729 17.7696C96.7985 17.6256 96.3953 17.5536 95.9633 17.5536C95.3009 17.5248 94.7537 17.64 94.3217 17.8992C93.8897 18.1584 93.5873 18.4752 93.4145 18.8496C93.2705 19.224 93.2849 19.6272 93.4577 20.0592C93.6593 20.4912 94.0625 20.8656 94.6673 21.1824C95.2145 21.4704 95.8193 21.7008 96.4817 21.8736C97.1441 22.0464 97.7921 22.2192 98.4257 22.392C99.0881 22.5648 99.7217 22.7664 100.327 22.9968C100.96 23.2272 101.522 23.544 102.011 23.9472C102.962 24.7248 103.538 25.632 103.739 26.6688C103.97 27.7056 103.912 28.728 103.567 29.736C103.221 30.744 102.616 31.6368 101.752 32.4144C100.917 33.192 99.9233 33.7104 98.7713 33.9696C97.9361 34.1424 97.0289 34.2288 96.0497 34.2288C95.0993 34.2288 94.1489 34.128 93.1985 33.9264C92.2769 33.7248 91.3841 33.408 90.5201 32.976C89.6849 32.544 88.9793 31.9968 88.4033 31.3344C88.0001 30.8736 87.7841 30.3552 87.7553 29.7792C87.7553 29.1744 87.8705 28.656 88.1009 28.224C88.3601 27.7632 88.7201 27.4464 89.1809 27.2736C89.6417 27.1008 90.1601 27.2016 90.7361 27.576C91.1969 27.8928 91.7441 28.2096 92.3777 28.5264C93.0113 28.8144 93.6449 29.0448 94.2785 29.2176C94.9121 29.3904 95.5169 29.4768 96.0929 29.4768C96.6977 29.4768 97.2161 29.3472 97.6481 29.088C98.2817 28.6848 98.6129 28.224 98.6417 27.7056C98.6705 27.1584 98.4833 26.7408 98.0801 26.4528Z" fill="#1F2937"/>
<path d="M111.909 31.1184C110.267 30.3984 109.086 29.3616 108.366 28.008C107.675 26.6544 107.358 25.2 107.416 23.6448C107.473 22.32 107.776 21.024 108.323 19.7568C108.899 18.4896 109.648 17.3952 110.569 16.4736C110.973 16.0704 111.376 15.7248 111.779 15.4368C112.211 15.12 112.672 14.8608 113.161 14.6592C113.507 14.5152 113.953 14.3568 114.501 14.184C115.077 13.9824 115.696 13.7952 116.358 13.6224C117.049 13.4496 117.769 13.3056 118.518 13.1904C119.267 13.0752 119.987 13.0176 120.678 13.0176C121.686 12.9888 122.579 13.1184 123.357 13.4064C124.134 13.6656 124.653 14.1552 124.912 14.8752L125.171 15.912C125.229 16.1136 125.257 16.3152 125.257 16.5168C125.257 16.6896 125.257 16.8624 125.257 17.0352V41.0976C125.257 41.2416 125.243 41.3712 125.214 41.4864C125.214 41.6304 125.2 41.7744 125.171 41.9184C125.056 42.2064 124.955 42.5376 124.869 42.912C124.696 43.2864 124.494 43.56 124.264 43.7328C124.005 43.992 123.645 44.136 123.184 44.1648C122.406 44.3952 121.701 44.3232 121.067 43.9488C120.721 43.6896 120.462 43.3872 120.289 43.0416C120.203 42.9552 120.16 42.8688 120.16 42.7824C120.131 42.7536 120.102 42.7104 120.073 42.6528C120.073 42.624 120.059 42.5808 120.03 42.5232C119.973 42.3504 119.915 42.1776 119.857 42.0048C119.829 41.8608 119.814 41.7024 119.814 41.5296C119.757 41.1552 119.713 40.7664 119.685 40.3632C119.685 39.9888 119.685 39.6 119.685 39.1968V32.7168C119.598 32.688 119.454 32.6736 119.253 32.6736C118.677 32.5872 117.985 32.5152 117.179 32.4576C116.401 32.3712 115.725 32.256 115.149 32.112C114.083 31.9104 113.003 31.5792 111.909 31.1184ZM118.561 19.2816C117.87 19.368 117.179 19.4976 116.488 19.6704C115.797 19.8144 115.177 20.0592 114.63 20.4048C114.083 20.7216 113.651 21.168 113.334 21.744C113.046 22.2912 112.945 23.04 113.032 23.9904C113.118 24.7104 113.377 25.2864 113.809 25.7184C114.27 26.1504 114.817 26.496 115.451 26.7552C116.113 27.0144 116.805 27.2016 117.525 27.3168C118.273 27.432 118.993 27.504 119.685 27.5328C119.656 26.1504 119.641 24.7536 119.641 23.3424C119.641 21.9312 119.656 20.5632 119.685 19.2384C119.454 19.2384 119.238 19.2384 119.037 19.2384C118.835 19.2384 118.677 19.2528 118.561 19.2816Z" fill="#1F2937"/>
<path d="M153.438 17.424C153.669 17.8272 153.784 18.2592 153.784 18.72C153.813 19.1808 153.712 19.6128 153.481 20.016C153.222 20.5344 152.848 20.8944 152.358 21.096C151.897 21.2688 151.379 21.2832 150.803 21.1392C150.544 21.0816 150.313 20.9808 150.112 20.8368C149.91 20.6928 149.694 20.5488 149.464 20.4048C149.262 20.232 149.017 20.0736 148.729 19.9296C148.47 19.7856 148.125 19.6848 147.693 19.6272C147.261 19.5696 146.785 19.5696 146.267 19.6272C145.777 19.6848 145.331 19.8 144.928 19.9728C144.294 20.2896 143.79 20.7792 143.416 21.4416C143.041 22.0752 142.797 22.7664 142.681 23.5152C142.566 24.2352 142.581 24.9696 142.725 25.7184C142.897 26.4672 143.214 27.1008 143.675 27.6192C144.021 28.0224 144.467 28.3536 145.014 28.6128C145.59 28.872 146.137 29.0304 146.656 29.088C147.145 29.1456 147.635 29.1456 148.125 29.088C148.614 29.0016 149.089 28.8864 149.55 28.7424C149.896 28.5984 150.285 28.4112 150.717 28.1808C151.149 27.9216 151.566 27.7632 151.969 27.7056C152.488 27.7056 152.891 27.8496 153.179 28.1376C153.467 28.3968 153.669 28.728 153.784 29.1312C153.899 29.5056 153.913 29.9088 153.827 30.3408C153.769 30.7728 153.611 31.1472 153.352 31.464C153.006 31.896 152.517 32.3136 151.883 32.7168C151.249 33.0912 150.645 33.3648 150.069 33.5376C149.377 33.768 148.6 33.8976 147.736 33.9264C146.901 33.9552 146.109 33.9264 145.36 33.84C145.014 33.7824 144.654 33.7104 144.28 33.624C143.905 33.5376 143.545 33.4368 143.2 33.3216C141.933 32.8608 140.867 32.2128 140.003 31.3776C139.168 30.5136 138.52 29.5488 138.059 28.4832C137.627 27.4176 137.382 26.28 137.325 25.0704C137.267 23.8608 137.411 22.6656 137.757 21.4848C138.073 20.3616 138.462 19.4112 138.923 18.6336C139.413 17.856 139.974 17.2224 140.608 16.7328C141.27 16.2144 142.005 15.8112 142.811 15.5232C143.617 15.2064 144.51 14.9328 145.489 14.7024C146.497 14.5008 147.563 14.5008 148.686 14.7024C149.809 14.904 150.817 15.2784 151.71 15.8256C152.401 16.2 152.977 16.7328 153.438 17.424Z" fill="#1F2937"/>
<path d="M162.895 14.5296C163.846 14.0688 164.839 13.7376 165.876 13.536C166.913 13.3344 167.935 13.2912 168.943 13.4064C169.98 13.5216 170.974 13.7952 171.924 14.2272C172.903 14.6592 173.796 15.264 174.603 16.0416C175.265 16.704 175.841 17.5104 176.331 18.4608C176.82 19.3824 177.18 20.2896 177.411 21.1824C177.9 22.7664 177.972 24.3648 177.627 25.9776C177.281 27.5904 176.691 29.088 175.855 30.4704C175.452 31.104 174.948 31.68 174.343 32.1984C173.767 32.688 173.148 33.0912 172.486 33.408C171.622 33.8112 170.686 34.0848 169.678 34.2288C168.67 34.4016 167.691 34.4448 166.74 34.3584C165.012 34.272 163.486 33.84 162.161 33.0624C160.865 32.2848 159.814 31.2912 159.007 30.0816C158.23 28.872 157.711 27.504 157.452 25.9776C157.222 24.4224 157.323 22.8384 157.755 21.2256C158.215 19.4976 158.878 18.1008 159.742 17.0352C160.635 15.9408 161.686 15.1056 162.895 14.5296ZM164.191 20.3184C163.759 20.7216 163.428 21.2256 163.198 21.8304C162.967 22.4352 162.823 23.0688 162.766 23.7312C162.708 24.3648 162.751 25.0128 162.895 25.6752C163.068 26.3088 163.327 26.8848 163.673 27.4032C163.961 27.8352 164.479 28.1952 165.228 28.4832C165.977 28.7712 166.755 28.944 167.561 29.0016C168.483 29.0592 169.289 28.8144 169.98 28.2672C170.671 27.6912 171.19 26.9856 171.535 26.1504C171.91 25.3152 172.083 24.408 172.054 23.4288C172.025 22.4496 171.766 21.5568 171.276 20.7504C170.931 20.1744 170.441 19.7568 169.807 19.4976C169.203 19.2096 168.555 19.0656 167.863 19.0656C167.201 19.0368 166.539 19.1376 165.876 19.368C165.214 19.5696 164.652 19.8864 164.191 20.3184Z" fill="#1F2937"/>
<path d="M186.858 14.5296C187.808 14.0688 188.802 13.7376 189.839 13.536C190.875 13.3344 191.898 13.2912 192.906 13.4064C193.943 13.5216 194.936 13.7952 195.887 14.2272C196.866 14.6592 197.759 15.264 198.565 16.0416C199.227 16.704 199.803 17.5104 200.293 18.4608C200.783 19.3824 201.143 20.2896 201.373 21.1824C201.863 22.7664 201.935 24.3648 201.589 25.9776C201.243 27.5904 200.653 29.088 199.818 30.4704C199.415 31.104 198.911 31.68 198.306 32.1984C197.73 32.688 197.111 33.0912 196.448 33.408C195.584 33.8112 194.648 34.0848 193.64 34.2288C192.632 34.4016 191.653 34.4448 190.703 34.3584C188.975 34.272 187.448 33.84 186.123 33.0624C184.827 32.2848 183.776 31.2912 182.97 30.0816C182.192 28.872 181.674 27.504 181.415 25.9776C181.184 24.4224 181.285 22.8384 181.717 21.2256C182.178 19.4976 182.84 18.1008 183.704 17.0352C184.597 15.9408 185.648 15.1056 186.858 14.5296ZM188.154 20.3184C187.722 20.7216 187.391 21.2256 187.16 21.8304C186.93 22.4352 186.786 23.0688 186.728 23.7312C186.671 24.3648 186.714 25.0128 186.858 25.6752C187.031 26.3088 187.29 26.8848 187.635 27.4032C187.923 27.8352 188.442 28.1952 189.191 28.4832C189.939 28.7712 190.717 28.944 191.523 29.0016C192.445 29.0592 193.251 28.8144 193.943 28.2672C194.634 27.6912 195.152 26.9856 195.498 26.1504C195.872 25.3152 196.045 24.408 196.016 23.4288C195.987 22.4496 195.728 21.5568 195.239 20.7504C194.893 20.1744 194.403 19.7568 193.77 19.4976C193.165 19.2096 192.517 19.0656 191.826 19.0656C191.163 19.0368 190.501 19.1376 189.839 19.368C189.176 19.5696 188.615 19.8864 188.154 20.3184Z" fill="#1F2937"/>
<path d="M211.457 30.6C211.428 30.744 211.4 30.888 211.371 31.032C211.371 31.1472 211.371 31.2768 211.371 31.4208L211.112 32.328C211.054 32.4432 211.011 32.5152 210.982 32.544L210.852 32.8032C210.708 33.12 210.449 33.3792 210.075 33.5808C209.384 33.9264 208.649 34.0128 207.872 33.84C207.382 33.7824 206.993 33.6384 206.705 33.408C206.417 33.2064 206.216 32.9616 206.1 32.6736C205.985 32.3856 205.899 32.0976 205.841 31.8096C205.755 31.5216 205.712 31.2624 205.712 31.032V6.84C205.712 6.6384 205.712 6.4656 205.712 6.3216C205.74 6.1488 205.769 5.9904 205.798 5.8464C205.827 5.6448 205.856 5.472 205.884 5.328C205.942 5.184 206 5.0256 206.057 4.8528C206.144 4.5648 206.302 4.3344 206.532 4.1616C206.878 3.9024 207.209 3.7584 207.526 3.7296C207.728 3.672 207.915 3.6432 208.088 3.6432C208.26 3.6144 208.462 3.6 208.692 3.6C209.096 3.6 209.556 3.7152 210.075 3.9456C210.478 4.176 210.766 4.4928 210.939 4.896C211.227 5.472 211.371 6.0048 211.371 6.4944C211.4 6.7824 211.414 7.2144 211.414 7.7904C211.443 8.3664 211.457 8.7984 211.457 9.0864V9.2592C211.515 10.1808 211.544 11.0736 211.544 11.9376C211.544 12.7728 211.529 13.6944 211.5 14.7024C211.5 15.6816 211.486 16.632 211.457 17.5536C211.457 18.4464 211.457 19.3392 211.457 20.232V29.304C211.457 29.4192 211.457 29.5344 211.457 29.6496C211.486 29.736 211.5 29.8368 211.5 29.952C211.5 30.24 211.486 30.456 211.457 30.6Z" fill="#1F2937"/>
<circle cx="132.72" cy="35.76" r="2.4" fill="#EC4899"/>
<path d="M42.9974 5.01505C38.4683 0.503762 31.9568 0 24 0C16.0331 0 9.51208 0.509703 4.98535 5.03287C0.458614 9.55604 0 16.0651 0 24.0232C0 31.9812 0.459802 38.4951 4.9901 43.0182C9.5204 47.5414 16.0337 48 24 48C31.9663 48 38.4861 47.542 43.0099 43.0182C47.5337 38.4945 48 31.9818 48 24.0232C48 16.0545 47.5343 9.53703 42.9974 5.01505Z" fill="#1F2937"/>
<path d="M38.88 28.0775H9.12C9.99943 20.8951 12.6026 12.106 18.0902 21.0802C19.6732 12.4169 26.3217 11.3063 29.1711 21.0802C33.3923 11.8616 37.0156 19.8955 38.88 28.0775Z" fill="white"/>
<path d="M9.12 29.5621H38.88V32.16H9.12V29.5621Z" fill="white"/>
</svg>
